{
.appVersion = "3343";
.formatVersion = 3;
DisplayStrings = (
Q,
A,
M,
Q,
E,
ABCDEFGHIJKLMNOPQRSTUVWXYZ0123456789
);
axes = (
{
default = 20;
name = Popup;
tag = POPP;
}
);
date = "2023-04-14 09:32:55 +0000";
familyName = Popup;
fontMaster = (
{
axesValues = (
100
);
customParameters = (
{
name = typoAscender;
value = 800;
},
{
name = typoDescender;
value = -200;
},
{
name = typoLineGap;
value = 200;
},
{
name = winAscent;
value = 1000;
},
{
name = winDescent;
value = 200;
},
{
name = hheaAscender;
value = 1000;
},
{
name = hheaDescender;
value = -200;
},
{
name = strikeoutPosition;
value = 250;
},
{
name = strikeoutSize;
value = 50;
}
);
id = m01;
metricValues = (
{
pos = 800;
},
{
pos = 700;
},
{
pos = 500;
},
{
},
{
pos = -200;
},
{
}
);
name = Popped;
},
{
axesValues = (
50
);
customParameters = (
{
name = typoAscender;
value = 800;
},
{
name = typoDescender;
value = -200;
},
{
name = typoLineGap;
value = 200;
},
{
name = winAscent;
value = 1000;
},
{
name = winDescent;
value = 200;
},
{
name = hheaAscender;
value = 1000;
},
{
name = hheaDescender;
value = -200;
},
{
name = strikeoutPosition;
value = 250;
},
{
name = strikeoutSize;
value = 50;
}
);
id = "0E77300E-4535-4E6D-BB60-A6761FA7179C";
metricValues = (
{
pos = 800;
},
{
pos = 700;
},
{
pos = 500;
},
{
},
{
pos = -200;
},
{
}
);
name = Halfed;
},
{
axesValues = (
0
);
customParameters = (
{
name = typoAscender;
value = 800;
},
{
name = typoDescender;
value = -200;
},
{
name = typoLineGap;
value = 200;
},
{
name = winAscent;
value = 1000;
},
{
name = winDescent;
value = 200;
},
{
name = hheaAscender;
value = 1000;
},
{
name = hheaDescender;
value = -200;
},
{
name = strikeoutPosition;
value = 250;
},
{
name = strikeoutSize;
value = 50;
}
);
id = "7456F304-0BFA-4692-82C1-4D2EC21296B2";
metricValues = (
{
pos = 800;
},
{
pos = 700;
},
{
pos = 500;
},
{
},
{
pos = -200;
},
{
}
);
name = Gone;
}
);
glyphs = (
{
glyphname = A;
lastChange = "2023-04-14 18:39:04 +0000";
layers = (
{
layerId = m01;
shapes = (
{
closed = 1;
nodes = (
(26,326,l),
(355,-3,l),
(409,52,l),
(409,217,l),
(355,159,l),
(26,492,l)
);
},
{
closed = 1;
nodes = (
(107,627,l),
(107,515,l),
(133,492,l),
(220,492,l),
(287,420,l),
(328,465,l),
(382,465,l),
(382,406,l),
(382,326,l),
(409,326,l),
(409,294,l),
(521,182,l),
(580,240,l),
(580,380,l),
(521,326,l),
(409,433,l),
(409,492,l),
(355,492,l),
(220,627,l)
);
},
{
closed = 1;
nodes = (
(328,353,l),
(274,353,l),
(274,326,l),
(301,326,l),
(328,299,l),
(382,245,l),
(382,326,l),
(382,406,l)
);
}
);
width = 600;
},
{
layerId = "0E77300E-4535-4E6D-BB60-A6761FA7179C";
shapes = (
{
closed = 1;
nodes = (
(26,326,l),
(355,-3,l),
(409,52,l),
(409,139,l),
(355,81,l),
(26,414,l)
);
},
{
closed = 1;
nodes = (
(107,550,l),
(107,496,l),
(133,473,l),
(221,473,l),
(316,379,l),
(328,389,l),
(382,389,l),
(382,406,l),
(382,326,l),
(409,326,l),
(409,294,l),
(521,182,l),
(580,240,l),
(580,303,l),
(521,249,l),
(409,356,l),
(409,415,l),
(355,415,l),
(220,550,l)
);
},
{
closed = 1;
nodes = (
(328,277,l),
(274,277,l),
(274,250,l),
(301,250,l),
(328,223,l),
(382,273,l),
(382,326,l),
(382,330,l)
);
}
);
width = 600;
},
{
layerId = "7456F304-0BFA-4692-82C1-4D2EC21296B2";
shapes = (
{
closed = 1;
nodes = (
(26,326,l),
(355,-6,l),
(409,52,l),
(408,51,l),
(355,-6,l),
(26,327,l)
);
},
{
closed = 1;
nodes = (
(221,473,l),
(147,473,l),
(133,473,l),
(221,473,l),
(316,379,l),
(328,389,l),
(382,389,l),
(382,374,l),
(382,326,l),
(409,326,l),
(409,294,l),
(521,182,l),
(453,250,l),
(409,294,l),
(409,326,l),
(382,326,l),
(382,389,l),
(328,389,l),
(316,379,l)
);
},
{
closed = 1;
nodes = (
(301,250,l),
(278,250,l),
(274,250,l),
(301,250,l),
(328,223,l),
(382,273,l),
(377,268,l),
(328,223,l)
);
}
);
width = 600;
}
);
note = A;
unicode = (65,97);
},
{
glyphname = B;
lastChange = "2023-04-14 18:39:04 +0000";
layers = (
{
layerId = m01;
shapes = (
{
closed = 1;
nodes = (
(244,638,l),
(76,470,l),
(21,526,l),
(21,304,l),
(76,249,l),
(209,381,l),
(209,436,l),
(265,491,l),
(298,491,l),
(298,638,l)
);
},
{
closed = 1;
nodes = (
(265,381,l),
(209,381,l),
(209,213,l),
(265,213,l),
(298,247,l),
(320,268,l),
(320,436,l)
);
},
{
closed = 1;
nodes = (
(354,193,l),
(298,247,l),
(298,53,l),
(356,-3,l),
(575,216,l),
(575,415,l)
);
},
{
closed = 1;
nodes = (
(356,470,l),
(466,470,l),
(466,415,l),
(356,304,l)
);
}
);
width = 600;
},
{
layerId = "0E77300E-4535-4E6D-BB60-A6761FA7179C";
shapes = (
{
closed = 1;
nodes = (
(244,511,l),
(76,343,l),
(21,399,l),
(21,304,l),
(76,249,l),
(209,381,l),
(209,382,l),
(265,437,l),
(298,437,l),
(298,511,l)
);
},
{
closed = 1;
nodes = (
(265,327,l),
(209,327,l),
(209,213,l),
(265,213,l),
(298,247,l),
(320,268,l),
(320,382,l)
);
},
{
closed = 1;
nodes = (
(354,82,l),
(298,136,l),
(298,53,l),
(356,-3,l),
(575,216,l),
(575,304,l)
);
},
{
closed = 1;
nodes = (
(356,382,l),
(466,382,l),
(466,327,l),
(356,326,l)
);
}
);
width = 600;
},
{
layerId = "7456F304-0BFA-4692-82C1-4D2EC21296B2";
shapes = (
{
closed = 1;
nodes = (
(76,249,l),
(69,256,l),
(47,278,l),
(21,304,l),
(76,249,l),
(209,381,l),
(211,383,l),
(265,437,l),
(298,437,l),
(265,437,l)
);
},
{
closed = 1;
nodes = (
(265,213,l),
(199,213,l),
(209,213,l),
(265,213,l),
(300,248,l),
(320,268,l),
(315,263,l)
);
},
{
closed = 1;
nodes = (
(356,-3,l),
(298,53,l),
(303,48,l),
(356,-3,l),
(575,216,l),
(573,214,l)
);
},
{
closed = 1;
nodes = (
(371,326,l),
(443,327,l),
(466,327,l),
(356,326,l)
);
}
);
width = 600;
}
);
note = B;
unicode = (66,98);
},
{
glyphname = C;
lastChange = "2023-04-14 18:39:04 +0000";
layers = (
{
layerId = m01;
shapes = (
{
closed = 1;
nodes = (
(251,618,l),
(157,521,l),
(157,474,l),
(216,416,l),
(251,451,l),
(344,451,l),
(344,618,l)
);
},
{
closed = 1;
nodes = (
(60,283,l),
(344,-1,l),
(395,-1,l),
(535,143,l),
(535,334,l),
(395,190,l),
(344,190,l),
(60,474,l)
);
}
);
width = 600;
},
{
layerId = "0E77300E-4535-4E6D-BB60-A6761FA7179C";
shapes = (
{
closed = 1;
nodes = (
(251,507,l),
(157,410,l),
(157,348,l),
(216,416,l),
(251,451,l),
(344,451,l),
(344,507,l)
);
},
{
closed = 1;
nodes = (
(60,283,l),
(344,-1,l),
(395,-1,l),
(535,143,l),
(535,223,l),
(395,79,l),
(344,79,l),
(60,363,l)
);
}
);
width = 600;
},
{
layerId = "7456F304-0BFA-4692-82C1-4D2EC21296B2";
shapes = (
{
closed = 1;
nodes = (
(251,451,l),
(157,354,l),
(160,357,l),
(217,416,l),
(251,451,l),
(344,451,l),
(323,451,l)
);
},
{
closed = 1;
nodes = (
(60,283,l),
(344,-1,l),
(395,-1,l),
(535,143,l),
(395,-1,l),
(344,-1,l),
(305,39,l),
(177,166,l)
);
}
);
width = 600;
}
);
note = C;
unicode = (67,99);
},
{
glyphname = D;
lastChange = "2023-04-14 18:39:04 +0000";
layers = (
{
layerId = m01;
shapes = (
{
closed = 1;
nodes = (
(192,629,l),
(28,465,l),
(28,268,l),
(71,311,l),
(71,135,l),
(208,-2,l),
(263,-2,l),
(263,191,l),
(206,191,l),
(71,326,l),
(71,385,l),
(126,385,l),
(182,441,l),
(250,441,l),
(397,287,l),
(466,355,l),
(466,410,l),
(247,629,l)
);
},
{
closed = 1;
nodes = (
(411,190,l),
(302,190,l),
(302,-2,l),
(412,-2,l),
(576,163,l),
(576,355,l)
);
}
);
width = 600;
},
{
layerId = "0E77300E-4535-4E6D-BB60-A6761FA7179C";
shapes = (
{
closed = 1;
nodes = (
(192,513,l),
(28,349,l),
(28,268,l),
(71,311,l),
(71,135,l),
(208,-2,l),
(263,-2,l),
(263,75,l),
(206,75,l),
(71,210,l),
(71,315,l),
(128,374,l),
(193,442,l),
(244,442,l),
(454,225,l),
(466,239,l),
(466,294,l),
(247,513,l)
);
},
{
closed = 1;
nodes = (
(411,74,l),
(302,74,l),
(302,-2,l),
(412,-2,l),
(576,163,l),
(576,239,l)
);
}
);
width = 600;
},
{
layerId = "7456F304-0BFA-4692-82C1-4D2EC21296B2";
shapes = (
{
closed = 1;
nodes = (
(193,442,l),
(53,291,l),
(79,333,l),
(53,291,l),
(71,135,l),
(208,-2,l),
(263,-2,l),
(252,-2,l),
(208,-2,l),
(71,135,l),
(53,291,l),
(150,396,l),
(193,442,l),
(244,442,l),
(454,225,l),
(424,256,l),
(422,258,l),
(244,442,l)
);
},
{
closed = 1;
nodes = (
(412,-2,l),
(303,-2,l),
(302,-2,l),
(412,-2,l),
(576,163,l),
(577,163,l)
);
}
);
width = 600;
}
);
note = D;
unicode = (68,100);
},
{
glyphname = E;
lastChange = "2023-04-21 18:29:14 +0000";
layers = (
{
layerId = m01;
shapes = (
{
closed = 1;
nodes = (
(248,654,l),
(145,555,l),
(145,506,l),
(219,428,l),
(248,457,l)
);
},
{
closed = 1;
nodes = (
(248,403,l),
(297,403,l),
(371,481,l),
(371,304,l),
(346,304,l),
(276,374,l),
(248,374,l)
);
},
{
closed = 1;
nodes = (
(46,304,l),
(346,0,l),
(396,0,l),
(548,152,l),
(548,354,l),
(396,202,l),
(346,202,l),
(46,502,l)
);
}
);
width = 600;
},
{
layerId = "0E77300E-4535-4E6D-BB60-A6761FA7179C";
shapes = (
{
closed = 1;
nodes = (
(248,551,l),
(145,452,l),
(145,399,l),
(248,492,l),
(248,493,l)
);
},
{
closed = 1;
nodes = (
(248,300,l),
(297,300,l),
(371,378,l),
(371,327,l),
(294,253,l),
(276,271,l),
(248,271,l)
);
},
{
closed = 1;
nodes = (
(46,304,l),
(346,0,l),
(396,0,l),
(548,152,l),
(548,251,l),
(396,99,l),
(346,99,l),
(46,399,l)
);
}
);
width = 600;
},
{
layerId = "7456F304-0BFA-4692-82C1-4D2EC21296B2";
shapes = (
{
closed = 1;
nodes = (
(226,435,l),
(197,406,l),
(167,376,l),
(156,365,l),
(248,457,l)
);
},
{
closed = 1;
nodes = (
(260,244,l),
(276,244,l),
(306,214,l),
(371,273,l),
(306,214,l),
(276,244,l),
(248,244,l)
);
},
{
closed = 1;
nodes = (
(46,304,l),
(346,0,l),
(396,0,l),
(548,152,l),
(536,140,l),
(396,0,l),
(346,0,l),
(108,241,l)
);
}
);
width = 600;
}
);
note = E;
unicode = (69,101);
},
{
glyphname = F;
lastChange = "2023-04-14 18:39:04 +0000";
layers = (
{
layerId = m01;
shapes = (
{
closed = 1;
nodes = (
(321,652,l),
(218,549,l),
(218,500,l),
(296,426,l),
(321,451,l)
);
},
{
closed = 1;
nodes = (
(321,397,l),
(370,397,l),
(448,475,l),
(448,270,l),
(345,372,l),
(321,372,l)
);
},
{
closed = 1;
nodes = (
(119,298,l),
(419,-2,l),
(469,-2,l),
(469,200,l),
(419,200,l),
(119,500,l)
);
}
);
width = 600;
},
{
layerId = "0E77300E-4535-4E6D-BB60-A6761FA7179C";
shapes = (
{
closed = 1;
nodes = (
(321,517,l),
(218,414,l),
(218,365,l),
(230,353,l),
(321,444,l)
);
},
{
closed = 1;
nodes = (
(320,280,l),
(378,270,l),
(448,340,l),
(448,287,l),
(379,227,l),
(321,237,l)
);
},
{
closed = 1;
nodes = (
(119,298,l),
(419,-2,l),
(469,-2,l),
(469,65,l),
(419,65,l),
(119,365,l)
);
}
);
width = 600;
},
{
layerId = "7456F304-0BFA-4692-82C1-4D2EC21296B2";
shapes = (
{
closed = 1;
nodes = (
(311,434,l),
(291,414,l),
(248,371,l),
(230,353,l),
(321,444,l)
);
},
{
closed = 1;
nodes = (
(361,230,l),
(379,227,l),
(440,280,l),
(448,287,l),
(379,227,l),
(321,237,l)
);
},
{
closed = 1;
nodes = (
(119,298,l),
(419,-2,l),
(469,-2,l),
(450,-2,l),
(419,-2,l),
(134,282,l)
);
}
);
width = 600;
}
);
note = F;
unicode = (70,102);
},
{
glyphname = G;
lastChange = "2023-04-14 18:39:04 +0000";
layers = (
{
layerId = m01;
shapes = (
{
closed = 1;
nodes = (
(424,440,l),
(424,339,l),
(454,369,l),
(472,388,l)
);
},
{
closed = 1;
nodes = (
(400,440,l),
(351,388,l),
(299,388,l),
(299,315,l),
(323,291,l),
(375,291,l),
(400,315,l)
);
},
{
closed = 1;
nodes = (
(28,291,l),
(327,-4,l),
(375,-4,l),
(573,190,l),
(573,388,l),
(371,194,l),
(323,194,l),
(28,489,l)
);
},
{
closed = 1;
nodes = (
(226,634,l),
(129,537,l),
(129,489,l),
(190,428,l),
(226,464,l),
(323,464,l),
(323,634,l)
);
}
);
width = 600;
},
{
layerId = "0E77300E-4535-4E6D-BB60-A6761FA7179C";
shapes = (
{
closed = 1;
nodes = (
(424,324,l),
(424,262,l),
(445,246,l),
(482,282,l)
);
},
{
closed = 1;
nodes = (
(400,324,l),
(351,272,l),
(299,272,l),
(299,218,l),
(323,218,l),
(361,218,l),
(400,258,l)
);
},
{
closed = 1;
nodes = (
(28,291,l),
(327,-4,l),
(375,-4,l),
(573,190,l),
(573,272,l),
(371,78,l),
(323,78,l),
(28,373,l)
);
},
{
closed = 1;
nodes = (
(226,518,l),
(129,421,l),
(129,364,l),
(171,404,l),
(234,464,l),
(323,464,l),
(323,518,l)
);
}
);
width = 600;
},
{
layerId = "7456F304-0BFA-4692-82C1-4D2EC21296B2";
shapes = (
{
closed = 1;
nodes = (
(430,257,l),
(439,251,l),
(433,255,l),
(439,251,l)
);
},
{
closed = 1;
nodes = (
(388,246,l),
(361,218,l),
(309,218,l),
(299,218,l),
(323,218,l),
(361,218,l),
(386,244,l)
);
},
{
closed = 1;
nodes = (
(28,291,l),
(327,-4,l),
(375,-4,l),
(573,190,l),
(566,183,l),
(375,-4,l),
(327,-4,l),
(85,235,l)
);
},
{
closed = 1;
nodes = (
(234,464,l),
(154,388,l),
(129,364,l),
(171,404,l),
(234,464,l),
(323,464,l),
(309,464,l)
);
}
);
width = 600;
}
);
note = G;
unicode = (71,103);
},
{
glyphname = H;
lastChange = "2023-04-14 18:39:04 +0000";
layers = (
{
layerId = m01;
shapes = (
{
closed = 1;
nodes = (
(54,294,l),
(351,-3,l),
(404,-3,l),
(404,197,l),
(351,197,l),
(54,494,l)
);
},
{
closed = 1;
nodes = (
(205,645,l),
(205,445,l),
(254,392,l),
(254,445,l),
(303,494,l),
(356,494,l),
(356,441,l),
(311,392,l),
(254,392,l),
(254,372,l),
(278,372,l),
(356,294,l),
(356,323,l),
(502,176,l),
(551,176,l),
(551,343,l),
(502,343,l),
(376,470,l),
(376,515,l),
(331,515,l)
);
}
);
width = 600;
},
{
layerId = "0E77300E-4535-4E6D-BB60-A6761FA7179C";
shapes = (
{
closed = 1;
nodes = (
(54,294,l),
(351,-3,l),
(404,-3,l),
(404,66,l),
(351,66,l),
(54,363,l)
);
},
{
closed = 1;
nodes = (
(205,514,l),
(205,452,l),
(254,399,l),
(298,357,l),
(303,352,l),
(356,352,l),
(356,310,l),
(307,273,l),
(252,278,l),
(252,246,l),
(313,240,l),
(356,278,l),
(356,302,l),
(502,152,l),
(551,152,l),
(551,212,l),
(502,212,l),
(376,339,l),
(376,384,l),
(331,384,l)
);
}
);
width = 600;
},
{
layerId = "7456F304-0BFA-4692-82C1-4D2EC21296B2";
shapes = (
{
closed = 1;
nodes = (
(54,294,l),
(351,-3,l),
(404,-3,l),
(385,-3,l),
(351,-3,l),
(115,233,l)
);
},
{
closed = 1;
nodes = (
(254,399,l),
(205,452,l),
(254,399,l),
(298,357,l),
(303,352,l),
(356,352,l),
(356,302,l),
(356,278,l),
(313,240,l),
(252,246,l),
(313,240,l),
(356,278,l),
(356,302,l),
(502,152,l),
(551,152,l),
(541,152,l),
(502,152,l),
(356,302,l),
(356,352,l),
(303,352,l)
);
}
);
width = 600;
}
);
note = H;
unicode = (72,104);
},
{
glyphname = I;
lastChange = "2023-04-14 18:39:04 +0000";
layers = (
{
layerId = m01;
shapes = (
{
closed = 1;
nodes = (
(193,638,l),
(164,614,l),
(116,614,l),
(116,566,l),
(92,541,l),
(43,541,l),
(43,367,l),
(92,367,l),
(120,392,l),
(120,444,l),
(144,444,l),
(144,343,l),
(415,76,l),
(415,-1,l),
(464,-1,l),
(565,96,l),
(565,266,l),
(464,169,l),
(415,169,l),
(415,218,l),
(439,246,l),
(464,246,l),
(464,266,l),
(419,266,l),
(144,541,l),
(144,590,l),
(193,590,l)
);
}
);
width = 600;
},
{
layerId = "0E77300E-4535-4E6D-BB60-A6761FA7179C";
shapes = (
{
closed = 1;
nodes = (
(193,511,l),
(164,487,l),
(116,487,l),
(116,452.668,l),
(92,441.906,l),
(43,441.906,l),
(43,367,l),
(92,367,l),
(120,392,l),
(120,444,l),
(144,444,l),
(144,343,l),
(415,76,l),
(415,-1,l),
(464,-1,l),
(565,96,l),
(565,139,l),
(464,42,l),
(415,42,l),
(415,91,l),
(439,119,l),
(464,119,l),
(464,139,l),
(419,139,l),
(144,414,l),
(144,463,l),
(193,463,l)
);
}
);
width = 600;
},
{
layerId = "7456F304-0BFA-4692-82C1-4D2EC21296B2";
shapes = (
{
closed = 1;
nodes = (
(144,463,l),
(144,444,l),
(120,444,l),
(120,392,l),
(92,367,l),
(74,367,l),
(43,367,l),
(92,367,l),
(120,392,l),
(120,444,l),
(144,444,l),
(144,343,l),
(415,76,l),
(415,-1,l),
(464,-1,l),
(565,96,l),
(564,95,l),
(464,-1,l),
(415,-1,l),
(415,91,l),
(439,119,l),
(420,97,l),
(415,91,l),
(415,76,l),
(144,343,l),
(144,463,l),
(193,463,l)
);
}
);
width = 600;
}
);
note = I;
unicode = (73,105);
},
{
glyphname = J;
lastChange = "2023-04-14 18:39:04 +0000";
layers = (
{
layerId = m01;
shapes = (
{
closed = 1;
nodes = (
(84,631,l),
(84,401,l),
(131,354,l),
(167,318,l),
(220,265,l),
(220,101,l),
(327,-6,l),
(503,-6,l),
(503,210,l),
(331,210,l),
(219,309,l),
(219,414,l),
(324,310,l),
(405,310,l)
);
}
);
width = 600;
},
{
layerId = "0E77300E-4535-4E6D-BB60-A6761FA7179C";
shapes = (
{
closed = 1;
nodes = (
(84,462,l),
(84,401,l),
(349,141,l),
(324,141,l),
(220,245,l),
(220,101,l),
(327,-6,l),
(503,-6,l),
(503,41,l),
(331,41,l),
(220,154,l),
(220,245,l),
(324,141,l),
(405,141,l)
);
}
);
width = 600;
},
{
layerId = "7456F304-0BFA-4692-82C1-4D2EC21296B2";
shapes = (
{
closed = 1;
nodes = (
(93,374,l),
(112,360,l),
(430,122,l),
(324,141,l),
(220,245,l),
(220,101,l),
(327,-6,l),
(503,-6,l),
(473,-6,l),
(327,-6,l),
(220,101,l),
(220,245,l),
(324,141,l),
(430,122,l)
);
}
);
width = 600;
}
);
note = J;
unicode = (74,106);
},
{
glyphname = K;
lastChange = "2023-04-14 18:39:04 +0000";
layers = (
{
layerId = m01;
shapes = (
{
closed = 1;
nodes = (
(20,374,l),
(390,0,l),
(436,0,l),
(436,187,l),
(390,187,l),
(20,561,l)
);
},
{
closed = 1;
nodes = (
(157,652,l),
(157,515,l),
(207,469,l),
(207,446,l),
(207,420,l),
(249,420,l),
(440,233,l),
(440,214,l),
(531,122,l),
(581,122,l),
(581,279,l),
(531,279,l),
(344,466,l),
(302,466,l),
(276,443,l),
(245,443,l),
(226,443,l),
(226,492,l),
(249,515,l),
(249,561,l)
);
}
);
width = 600;
},
{
layerId = "0E77300E-4535-4E6D-BB60-A6761FA7179C";
shapes = (
{
closed = 1;
nodes = (
(20,374,l),
(390,0,l),
(436,0,l),
(436,67,l),
(390,67,l),
(20,441,l)
);
},
{
closed = 1;
nodes = (
(157,526,l),
(157,461,l),
(232,392,l),
(242,383,l),
(232,371,l),
(232,302,l),
(278,302,l),
(302,323,l),
(339,323,l),
(531,111,l),
(581,111,l),
(581,169,l),
(531,169,l),
(344,373,l),
(302,373,l),
(276,350,l),
(232,350,l),
(232,371,l),
(249,392,l),
(249,435,l)
);
}
);
width = 600;
},
{
layerId = "7456F304-0BFA-4692-82C1-4D2EC21296B2";
shapes = (
{
closed = 1;
nodes = (
(20,374,l),
(390,0,l),
(436,0,l),
(416,0,l),
(390,0,l),
(132,261,l)
);
},
{
closed = 1;
nodes = (
(180,440,l),
(157,461,l),
(232,392,l),
(242,383,l),
(232,371,l),
(232,302,l),
(278,302,l),
(302,323,l),
(339,323,l),
(531,111,l),
(581,111,l),
(564,111,l),
(531,111,l),
(339,323,l),
(302,323,l),
(278,302,l),
(232,302,l),
(232,371,l),
(237,377,l),
(242,383,l)
);
}
);
width = 600;
}
);
note = K;
unicode = (75,107);
},
{
glyphname = L;
lastChange = "2023-04-14 18:39:04 +0000";
layers = (
{
layerId = m01;
shapes = (
{
closed = 1;
nodes = (
(15,560,l),
(15,362,l),
(377,0,l),
(427,0,l),
(427,203,l),
(373,203,l)
);
},
{
closed = 1;
nodes = (
(508,203,l),
(457,203,l),
(457,0,l),
(508,0,l),
(586,76,l),
(586,278,l)
);
}
);
width = 600;
},
{
layerId = "0E77300E-4535-4E6D-BB60-A6761FA7179C";
shapes = (
{
closed = 1;
nodes = (
(15,436,l),
(15,362,l),
(377,0,l),
(427,0,l),
(427,79,l),
(373,79,l)
);
},
{
closed = 1;
nodes = (
(508,79,l),
(457,79,l),
(457,0,l),
(508,0,l),
(586,76,l),
(586,154,l)
);
}
);
width = 600;
},
{
layerId = "7456F304-0BFA-4692-82C1-4D2EC21296B2";
shapes = (
{
closed = 1;
nodes = (
(102,276,l),
(15,362,l),
(377,0,l),
(427,0,l),
(402,0,l),
(377,0,l)
);
},
{
closed = 1;
nodes = (
(508,0,l),
(489,0,l),
(457,0,l),
(508,0,l),
(586,76,l),
(561,52,l)
);
}
);
width = 600;
}
);
note = L;
unicode = (76,108);
},
{
glyphname = M;
lastChange = "2023-04-21 18:14:45 +0000";
layers = (
{
layerId = m01;
shapes = (
{
closed = 1;
nodes = (
(15,334,l),
(349,0,l),
(401,0,l),
(401,185,l),
(349,185,l),
(15,519,l)
);
},
{
closed = 1;
nodes = (
(245,593,l),
(245,544,l),
(197,544,l),
(197,493,l),
(142,496,l),
(303,334,l),
(324,313,l),
(324,327,l),
(522,129,l),
(580,129,l),
(580,316,l),
(524,316,l)
);
},
{
closed = 1;
nodes = (
(222,466,l),
(223,519,l),
(274,519,l),
(326,466,l),
(326,417,l),
(272,417,l)
);
}
);
width = 600;
},
{
layerId = "0E77300E-4535-4E6D-BB60-A6761FA7179C";
shapes = (
{
closed = 1;
nodes = (
(15,334,l),
(349,0,l),
(401,0,l),
(401,76,l),
(349,76,l),
(15,410,l)
);
},
{
closed = 1;
nodes = (
(245,484,l),
(245,435,l),
(197,435,l),
(197,384,l),
(142,387,l),
(271,259,l),
(326,259,l),
(326,327,l),
(522,129,l),
(580,129,l),
(580,207,l),
(524,207,l)
);
},
{
closed = 1;
nodes = (
(222,357,l),
(223,410,l),
(274,410,l),
(326,357,l),
(326,308,l),
(272,308,l)
);
}
);
width = 600;
},
{
layerId = "7456F304-0BFA-4692-82C1-4D2EC21296B2";
shapes = (
{
closed = 1;
nodes = (
(15,334,l),
(349,0,l),
(401,0,l),
(387,0,l),
(349,0,l),
(14,335,l)
);
},
{
closed = 1;
nodes = (
(326,327,l),
(274,396,l),
(223,410,l),
(222,357,l),
(272,308,l),
(273,308,l),
(326,308,l),
(326,327,l),
(524,129,l),
(580,129,l),
(579,129,l),
(524,129,l)
);
},
{
closed = 1;
nodes = (
(222,357,l),
(223,410,l),
(274,396,l),
(326,327,l),
(326,308,l),
(272,308,l)
);
}
);
width = 600;
}
);
note = M;
unicode = (77,109);
},
{
glyphname = N;
lastChange = "2023-04-14 18:39:04 +0000";
layers = (
{
layerId = m01;
shapes = (
{
closed = 1;
nodes = (
(23,328,l),
(351,0,l),
(394,0,l),
(394,164,l),
(344,164,l),
(23,492,l)
);
},
{
closed = 1;
nodes = (
(394,207,l),
(473,173,l),
(541,144,l),
(580,144,l),
(580,308,l),
(541,308,l),
(118,493,l)
);
},
{
closed = 1;
nodes = (
(209,635,l),
(209,529,l),
(249,511,l),
(405,439,l)
);
}
);
width = 600;
},
{
layerId = "0E77300E-4535-4E6D-BB60-A6761FA7179C";
shapes = (
{
closed = 1;
nodes = (
(23,328,l),
(351,0,l),
(394,0,l),
(394,81,l),
(344,81,l),
(23,409,l)
);
},
{
closed = 1;
nodes = (
(394,124,l),
(238,286,l),
(541,144,l),
(580,144,l),
(580,225,l),
(541,225,l),
(118,410,l)
);
},
{
closed = 1;
nodes = (
(209,552,l),
(209,477,l),
(321,393,l),
(405,356,l)
);
}
);
width = 600;
},
{
layerId = "7456F304-0BFA-4692-82C1-4D2EC21296B2";
shapes = (
{
closed = 1;
nodes = (
(23,328,l),
(351,0,l),
(394,0,l),
(351,0,l),
(344,7,l),
(46,305,l)
);
},
{
closed = 1;
nodes = (
(394,124,l),
(238,286,l),
(541,144,l),
(580,144,l),
(559,144,l),
(541,144,l),
(238,286,l)
);
},
{
closed = 1;
nodes = (
(321,393,l),
(209,477,l),
(321,393,l),
(299,409,l)
);
}
);
width = 600;
}
);
note = N;
unicode = (78,110);
},
{
glyphname = O;
lastChange = "2023-04-14 18:39:04 +0000";
layers = (
{
layerId = m01;
shapes = (
{
closed = 1;
nodes = (
(229,617,l),
(134,523,l),
(134,475,l),
(175,434,l),
(194,415,l),
(230,450,l),
(384,296,l),
(405,317,l),
(468,380,l),
(468,427,l),
(301,593,l),
(277,617,l)
);
},
{
closed = 1;
nodes = (
(37,284,l),
(321,0,l),
(372,0,l),
(563,195,l),
(563,380,l),
(373,189,l),
(322,189,l),
(37,474,l)
);
}
);
width = 600;
},
{
layerId = "0E77300E-4535-4E6D-BB60-A6761FA7179C";
shapes = (
{
closed = 1;
nodes = (
(229,509,l),
(134,415,l),
(134,357,l),
(146,367,l),
(194,415,l),
(230,450,l),
(277,450,l),
(403,319,l),
(458,263,l),
(468,272,l),
(468,319,l),
(277,509,l)
);
},
{
closed = 1;
nodes = (
(37,284,l),
(321,0,l),
(372,0,l),
(563,195,l),
(563,272,l),
(373,81,l),
(322,81,l),
(37,366,l)
);
}
);
width = 600;
},
{
layerId = "7456F304-0BFA-4692-82C1-4D2EC21296B2";
shapes = (
{
closed = 1;
nodes = (
(230,450,l),
(134,356,l),
(202,423,l),
(146,367,l),
(194,415,l),
(230,450,l),
(277,450,l),
(403,319,l),
(458,263,l),
(468,272,l),
(458,263,l),
(277,450,l)
);
},
{
closed = 1;
nodes = (
(37,284,l),
(321,0,l),
(372,0,l),
(563,195,l),
(549,181,l),
(372,0,l),
(321,0,l),
(62,259,l)
);
}
);
width = 600;
}
);
note = O;
unicode = (79,111);
},
{
glyphname = P;
lastChange = "2023-04-14 18:39:04 +0000";
layers = (
{
layerId = m01;
shapes = (
{
closed = 1;
nodes = (
(252,646,l),
(154,548,l),
(110,548,l),
(110,380,l),
(154,380,l),
(194,420,l),
(220,446,l),
(233,459,l),
(233,477,l),
(254,497,l),
(328,571,l)
);
},
{
closed = 1;
nodes = (
(349,339,l),
(354,334,l),
(400,380,l),
(400,549,l),
(280,429,l),
(234,429,l),
(234,407,l),
(280,407,l)
);
},
{
closed = 1;
nodes = (
(234,189,l),
(423,0,l),
(472,0,l),
(472,168,l),
(424,168,l),
(234,359,l)
);
}
);
width = 600;
},
{
layerId = "0E77300E-4535-4E6D-BB60-A6761FA7179C";
shapes = (
{
closed = 1;
nodes = (
(252,543,l),
(154,445,l),
(110,445,l),
(110,380,l),
(154,380,l),
(252,478,l),
(296,436,l),
(233,374,l),
(233,356,l),
(233,374,l),
(328,468,l)
);
},
{
closed = 1;
nodes = (
(302,282,l),
(354,334,l),
(400,380,l),
(400,446,l),
(280,326,l),
(234,326,l),
(234,304,l),
(280,304,l)
);
},
{
closed = 1;
nodes = (
(234,189,l),
(423,0,l),
(472,0,l),
(472,65,l),
(424,65,l),
(234,256,l)
);
}
);
width = 600;
},
{
layerId = "7456F304-0BFA-4692-82C1-4D2EC21296B2";
shapes = (
{
closed = 1;
nodes = (
(252,478,l),
(154,380,l),
(110,380,l),
(125,380,l),
(154,380,l),
(252,478,l),
(296,436,l),
(233,374,l),
(233,356,l),
(233,374,l),
(296,436,l)
);
},
{
closed = 1;
nodes = (
(302,282,l),
(354,334,l),
(400,380,l),
(385,365,l),
(302,282,l),
(280,304,l),
(234,304,l),
(280,304,l)
);
},
{
closed = 1;
nodes = (
(234,189,l),
(423,0,l),
(472,0,l),
(465,0,l),
(423,0,l),
(252,171,l)
);
}
);
width = 600;
}
);
note = P;
unicode = (80,112);
},
{
glyphname = Q;
lastChange = "2023-04-21 18:26:53 +0000";
layers = (
{
layerId = m01;
shapes = (
{
closed = 1;
nodes = (
(198,609,l),
(122,533,l),
(122,482,l),
(183,422,l),
(198,437,l),
(249,437,l),
(366,320,l),
(394,292,l),
(430,328,l),
(529,328,l),
(377,175,l),
(324,175,l),
(18,482,l),
(18,307,l),
(324,0,l),
(378,0,l),
(582,204,l),
(582,380,l),
(546,344,l),
(447,344,l),
(430,344,l),
(394,380,l),
(429,415,l),
(535,415,l),
(535,428,l),
(429,428,l),
(403,454,l),
(248,609,l)
);
}
);
width = 600;
},
{
layerId = "0E77300E-4535-4E6D-BB60-A6761FA7179C";
shapes = (
{
closed = 1;
nodes = (
(198,525,l),
(122,449,l),
(122,398,l),
(135,385,l),
(198,452,l),
(249,452,l),
(394,296,l),
(394,208,l),
(430,244,l),
(529,244,l),
(377,91,l),
(324,91,l),
(18,398,l),
(18,307,l),
(324,0,l),
(378,0,l),
(582,204,l),
(582,296,l),
(546,260,l),
(447,260,l),
(430,260,l),
(394,296,l),
(429,331,l),
(535,331,l),
(535,344,l),
(429,344,l),
(403,370,l),
(248,525,l)
);
}
);
width = 600;
},
{
layerId = "7456F304-0BFA-4692-82C1-4D2EC21296B2";
shapes = (
{
closed = 1;
nodes = (
(198,452,l),
(169,421,l),
(152,403,l),
(135,385,l),
(184,437,l),
(198,452,l),
(394,296,l),
(394,208,l),
(430,243,l),
(529,151,l),
(378,0,l),
(324,0,l),
(21,304,l),
(18,307,l),
(324,0,l),
(378,0,l),
(582,204,l),
(581,203,l),
(529,151,l),
(430,243,l),
(394,208,l),
(394,296,l),
(394,295,l),
(498,300,l),
(477,299,l),
(394,295,l),
(394,296,l),
(237,421,l)
);
}
);
width = 600;
}
);
note = Q;
unicode = (81,113);
},
{
glyphname = R;
lastChange = "2023-04-14 18:39:04 +0000";
layers = (
{
layerId = m01;
shapes = (
{
closed = 1;
nodes = (
(191,645,l),
(91,546,l),
(48,546,l),
(48,380,l),
(91,380,l),
(172,461,l),
(172,476,l),
(208,512,l),
(266,570,l)
);
},
{
closed = 1;
nodes = (
(218,426,l),
(171,426,l),
(171,403,l),
(218,403,l),
(293,328,l),
(418,203,l),
(505,116,l),
(551,116,l),
(551,285,l),
(505,285,l),
(377,413,l),
(235,413,l),
(296,474,l),
(338,474,l),
(338,546,l)
);
},
{
closed = 1;
nodes = (
(172,189,l),
(362,0,l),
(408,0,l),
(408,165,l),
(362,165,l),
(171,355,l)
);
}
);
width = 600;
},
{
layerId = "0E77300E-4535-4E6D-BB60-A6761FA7179C";
shapes = (
{
closed = 1;
nodes = (
(197,568,l),
(91,456,l),
(48,456,l),
(48,380,l),
(91,380,l),
(97,386,l),
(206,500,l),
(246,464,l),
(272,493,l)
);
},
{
closed = 1;
nodes = (
(218,355,l),
(171,355,l),
(171,332,l),
(218,332,l),
(314,259,l),
(362,259,l),
(505,116,l),
(551,116,l),
(551,191,l),
(505,191,l),
(377,319,l),
(235,319,l),
(296,380,l),
(338,423,l),
(338,475,l)
);
},
{
closed = 1;
nodes = (
(172,189,l),
(362,0,l),
(408,0,l),
(408,76,l),
(362,76,l),
(171,266,l)
);
}
);
width = 600;
},
{
layerId = "7456F304-0BFA-4692-82C1-4D2EC21296B2";
shapes = (
{
closed = 1;
nodes = (
(206,500,l),
(91,380,l),
(60,380,l),
(48,380,l),
(91,380,l),
(97,386,l),
(206,500,l),
(246,464,l),
(234,475,l)
);
},
{
closed = 1;
nodes = (
(235,319,l),
(218,332,l),
(171,332,l),
(218,332,l),
(314,259,l),
(362,259,l),
(505,116,l),
(551,116,l),
(505,116,l),
(362,259,l),
(314,259,l),
(235,319,l),
(296,380,l),
(338,423,l),
(295,379,l)
);
},
{
closed = 1;
nodes = (
(172,189,l),
(362,0,l),
(408,0,l),
(398,0,l),
(362,0,l),
(191,170,l)
);
}
);
width = 600;
}
);
note = R;
unicode = (82,114);
},
{
glyphname = S;
lastChange = "2023-04-14 18:39:04 +0000";
layers = (
{
layerId = m01;
shapes = (
{
closed = 1;
nodes = (
(218,634,l),
(121,537,l),
(202,456,l),
(221,475,l),
(268,475,l),
(268,634,l)
);
},
{
closed = 1;
nodes = (
(51,330,l),
(193,188,l),
(297,188,l),
(362,253,l),
(362,442,l),
(294,373,l),
(193,373,l),
(51,510,l)
);
},
{
closed = 1;
nodes = (
(390,437,l),
(487,341,l),
(487,287,l),
(427,228,l),
(390,265,l)
);
},
{
closed = 1;
nodes = (
(464,170,l),
(415,170,l),
(367,217,l),
(367,48,l),
(415,0,l),
(464,0,l),
(560,96,l),
(560,265,l)
);
}
);
width = 600;
},
{
layerId = "0E77300E-4535-4E6D-BB60-A6761FA7179C";
shapes = (
{
closed = 1;
nodes = (
(218,539,l),
(121,442,l),
(154,411,l),
(221,475,l),
(268,475,l),
(268,539,l)
);
},
{
closed = 1;
nodes = (
(51,330,l),
(193,188,l),
(297,188,l),
(362,253,l),
(362,335,l),
(294,266,l),
(193,266,l),
(51,403,l)
);
},
{
closed = 1;
nodes = (
(390,330,l),
(487,234,l),
(487,204,l),
(471,188,l),
(390,265,l)
);
},
{
closed = 1;
nodes = (
(464,63,l),
(415,63,l),
(367,110,l),
(367,48,l),
(415,0,l),
(464,0,l),
(560,96,l),
(560,158,l)
);
}
);
width = 600;
},
{
layerId = "7456F304-0BFA-4692-82C1-4D2EC21296B2";
shapes = (
{
closed = 1;
nodes = (
(221,475,l),
(172,428,l),
(154,411,l),
(221,475,l),
(268,475,l),
(254,475,l)
);
},
{
closed = 1;
nodes = (
(51,330,l),
(193,188,l),
(297,188,l),
(362,253,l),
(343,234,l),
(297,188,l),
(193,188,l),
(92,289,l)
);
},
{
closed = 1;
nodes = (
(466,193,l),
(471,188,l),
(487,204,l),
(471,188,l),
(390,265,l)
);
},
{
closed = 1;
nodes = (
(464,0,l),
(415,0,l),
(381,34,l),
(367,48,l),
(415,0,l),
(464,0,l),
(560,96,l),
(545,81,l)
);
}
);
width = 600;
}
);
note = S;
unicode = (83,115);
},
{
glyphname = T;
lastChange = "2023-04-14 18:39:04 +0000";
layers = (
{
layerId = m01;
shapes = (
{
closed = 1;
nodes = (
(274,637,l),
(206,569,l),
(156,569,l),
(156,517,l),
(87,449,l),
(39,448,l),
(39,281,l),
(88,281,l),
(159,352,l),
(159,401,l),
(182,401,l),
(182,330,l),
(512,0,l),
(561,0,l),
(561,166,l),
(515,166,l),
(183,499,l),
(183,545,l),
(231,545,l),
(274,502,l)
);
}
);
width = 600;
},
{
layerId = "0E77300E-4535-4E6D-BB60-A6761FA7179C";
shapes = (
{
closed = 1;
nodes = (
(274,546,l),
(206,478,l),
(156,478,l),
(156,426,l),
(87,358,l),
(39,357,l),
(39,281,l),
(88,281,l),
(159,352,l),
(159,401,l),
(182,401,l),
(182,330,l),
(512,0,l),
(561,0,l),
(561,75,l),
(515,75,l),
(183,408,l),
(183,454,l),
(231,454,l),
(274,411,l)
);
}
);
width = 600;
},
{
layerId = "7456F304-0BFA-4692-82C1-4D2EC21296B2";
shapes = (
{
closed = 1;
nodes = (
(183,454,l),
(182,401,l),
(159,401,l),
(159,352,l),
(88,281,l),
(65,281,l),
(39,281,l),
(88,281,l),
(159,352,l),
(159,401,l),
(182,401,l),
(192,391,l),
(515,75,l),
(538,75,l),
(561,75,l),
(515,75,l),
(182,401,l),
(183,454,l),
(231,454,l),
(224,454,l)
);
}
);
width = 600;
}
);
note = T;
unicode = (84,116);
},
{
glyphname = U;
lastChange = "2023-04-14 18:39:04 +0000";
layers = (
{
layerId = m01;
shapes = (
{
closed = 1;
nodes = (
(213,651,l),
(213,476,l),
(401,288,l),
(463,351,l),
(463,401,l)
);
},
{
closed = 1;
nodes = (
(37,301,l),
(338,0,l),
(389,0,l),
(564,175,l),
(564,352,l),
(388,175,l),
(337,175,l),
(37,476,l)
);
}
);
width = 600;
},
{
layerId = "0E77300E-4535-4E6D-BB60-A6761FA7179C";
shapes = (
{
closed = 1;
nodes = (
(213,548,l),
(213,476,l),
(401,288,l),
(463,234,l),
(463,298,l)
);
},
{
closed = 1;
nodes = (
(37,301,l),
(338,0,l),
(389,0,l),
(564,175,l),
(564,249,l),
(388,72,l),
(337,72,l),
(37,373,l)
);
}
);
width = 600;
},
{
layerId = "7456F304-0BFA-4692-82C1-4D2EC21296B2";
shapes = (
{
closed = 1;
nodes = (
(256,433,l),
(213,476,l),
(401,288,l),
(463,234,l),
(401,288,l)
);
},
{
closed = 1;
nodes = (
(37,301,l),
(338,0,l),
(389,0,l),
(564,175,l),
(554,165,l),
(389,0,l),
(338,0,l),
(38,300,l)
);
}
);
width = 600;
}
);
note = U;
unicode = (85,117);
},
{
glyphname = V;
lastChange = "2023-04-14 18:39:04 +0000";
layers = (
{
layerId = m01;
shapes = (
{
closed = 1;
nodes = (
(33,351,l),
(194,190,l),
(394,62,l),
(567,0,l),
(567,161,l),
(407,214,l),
(181,376,l),
(33,535,l)
);
},
{
closed = 1;
nodes = (
(140,641,l),
(140,535,l),
(234,440,l),
(450,280,l),
(300,481,l)
);
}
);
width = 600;
},
{
layerId = "0E77300E-4535-4E6D-BB60-A6761FA7179C";
shapes = (
{
closed = 1;
nodes = (
(33,351,l),
(194,190,l),
(394,62,l),
(567,0,l),
(567,54,l),
(407,107,l),
(181,269,l),
(33,428,l)
);
},
{
closed = 1;
nodes = (
(140,534,l),
(140,447,l),
(279,300,l),
(450,173,l),
(300,374,l)
);
}
);
width = 600;
},
{
layerId = "7456F304-0BFA-4692-82C1-4D2EC21296B2";
shapes = (
{
closed = 1;
nodes = (
(33,351,l),
(195,189,l),
(394,62,l),
(567,0,l),
(514,19,l),
(394,62,l),
(195,189,l),
(51,333,l)
);
},
{
closed = 1;
nodes = (
(157,429,l),
(140,447,l),
(279,300,l),
(450,173,l),
(279,300,l)
);
}
);
width = 600;
}
);
note = V;
unicode = (86,118);
},
{
glyphname = W;
lastChange = "2023-04-14 18:39:04 +0000";
layers = (
{
layerId = m01;
shapes = (
{
closed = 1;
nodes = (
(10,313,l),
(153,170,l),
(347,48,l),
(494,0,l),
(494,147,l),
(347,194,l),
(157,341,l),
(10,484,l)
);
},
{
closed = 1;
nodes = (
(109,579,l),
(105,484,l),
(204,388,l),
(390,250,l),
(252,436,l)
);
},
{
closed = 1;
nodes = (
(200,654,l),
(200,583,l),
(307,472,l),
(446,289,l),
(494,147,l),
(589,48,l),
(589,222,l),
(486,329,l),
(347,511,l)
);
}
);
width = 600;
},
{
layerId = "0E77300E-4535-4E6D-BB60-A6761FA7179C";
shapes = (
{
closed = 1;
nodes = (
(10,313,l),
(153,170,l),
(347,48,l),
(494,0,l),
(494,58,l),
(347,105,l),
(157,252,l),
(10,395,l)
);
},
{
closed = 1;
nodes = (
(109,490,l),
(105,395,l),
(204,299,l),
(390,161,l),
(252,347,l)
);
},
{
closed = 1;
nodes = (
(200,565,l),
(200,494,l),
(307,383,l),
(446,200,l),
(476,155,l),
(589,48,l),
(589,104,l),
(486,240,l),
(347,422,l)
);
}
);
width = 600;
},
{
layerId = "7456F304-0BFA-4692-82C1-4D2EC21296B2";
shapes = (
{
closed = 1;
nodes = (
(10,313,l),
(153,170,l),
(347,48,l),
(494,0,l),
(347,48,l),
(153,170,l),
(139,184,l),
(35,288,l)
);
},
{
closed = 1;
nodes = (
(114,386,l),
(105,395,l),
(204,299,l),
(390,161,l),
(204,299,l)
);
},
{
closed = 1;
nodes = (
(222,471,l),
(200,494,l),
(307,383,l),
(446,200,l),
(476,155,l),
(589,48,l),
(476,155,l),
(446,200,l),
(307,383,l)
);
}
);
width = 600;
}
);
note = W;
unicode = (87,119);
},
{
glyphname = X;
lastChange = "2023-04-14 18:39:04 +0000";
layers = (
{
layerId = m01;
shapes = (
{
closed = 1;
nodes = (
(51,637,l),
(51,516,l),
(151,516,l),
(255,516,l),
(255,536,l),
(153,536,l)
);
},
{
closed = 1;
nodes = (
(11,303,l),
(48,267,l),
(203,267,l),
(203,227,l),
(431,0,l),
(484,0,l),
(484,187,l),
(431,187,l),
(203,418,l),
(305,418,l),
(453,267,l),
(553,266,l),
(588,304,l),
(588,476,l),
(553,441,l),
(48,441,l),
(11,481,l)
);
}
);
width = 600;
},
{
layerId = "0E77300E-4535-4E6D-BB60-A6761FA7179C";
shapes = (
{
closed = 1;
nodes = (
(51,505,l),
(51,448,l),
(115,384,l),
(255,384,l),
(255,404,l),
(153,404,l)
);
},
{
closed = 1;
nodes = (
(11,303,l),
(48,267,l),
(203,267,l),
(203,227,l),
(431,0,l),
(484,0,l),
(484,55,l),
(431,55,l),
(203,286,l),
(305,286,l),
(325,266,l),
(553,266,l),
(588,304,l),
(588,344,l),
(553,309,l),
(48,309,l),
(11,349,l)
);
}
);
width = 600;
},
{
layerId = "7456F304-0BFA-4692-82C1-4D2EC21296B2";
shapes = (
{
closed = 1;
nodes = (
(115,384,l),
(51,448,l),
(115,384,l),
(255,384,l),
(211,384,l),
(153,384,l)
);
},
{
closed = 1;
nodes = (
(11,303,l),
(48,267,l),
(203,267,l),
(431,55,l),
(484,55,l),
(484,0,l),
(484,55,l),
(431,55,l),
(203,267,l),
(305,286,l),
(325,266,l),
(553,266,l),
(325,266,l),
(305,286,l),
(203,267,l),
(48,267,l),
(13,301,l)
);
}
);
width = 600;
}
);
note = X;
unicode = (88,120);
},
{
glyphname = Y;
lastChange = "2023-04-14 18:39:04 +0000";
layers = (
{
layerId = m01;
shapes = (
{
closed = 1;
nodes = (
(42,354,l),
(161,230,l),
(213,227,l),
(250,266,l),
(250,429,l),
(216,395,l),
(167,397,l),
(42,524,l)
);
},
{
closed = 1;
nodes = (
(161,640,l),
(161,506,l),
(193,474,l),
(264,474,l),
(264,308,l),
(277,308,l),
(277,230,l),
(507,0,l),
(560,0,l),
(560,184,l),
(507,184,l),
(279,411,l),
(279,467,l),
(327,467,l),
(336,458,l),
(336,522,l),
(308,493,l),
(264,493,l),
(264,536,l)
);
}
);
width = 600;
},
{
layerId = "0E77300E-4535-4E6D-BB60-A6761FA7179C";
shapes = (
{
closed = 1;
nodes = (
(42,354,l),
(161,230,l),
(213,227,l),
(250,266,l),
(250,312,l),
(216,278,l),
(167,280,l),
(42,407,l)
);
},
{
closed = 1;
nodes = (
(161,523,l),
(161,461,l),
(193,429,l),
(264,357,l),
(264,323,l),
(279,323,l),
(279,230,l),
(507,0,l),
(560,0,l),
(560,67,l),
(507,67,l),
(279,294,l),
(279,350,l),
(327,350,l),
(336,359,l),
(336,405,l),
(308,376,l),
(264,376,l),
(264,419,l)
);
}
);
width = 600;
},
{
layerId = "7456F304-0BFA-4692-82C1-4D2EC21296B2";
shapes = (
{
closed = 1;
nodes = (
(42,354,l),
(161,230,l),
(213,227,l),
(250,266,l),
(247,263,l),
(213,227,l),
(161,230,l),
(56,339,l)
);
},
{
closed = 1;
nodes = (
(161,460,l),
(162,459,l),
(193,429,l),
(264,357,l),
(264,323,l),
(279,323,l),
(279,230,l),
(507,0,l),
(560,0,l),
(548,0,l),
(507,0,l),
(279,230,l),
(279,350,l),
(327,350,l),
(279,350,l),
(279,323,l),
(264,323,l),
(264,357,l),
(193,429,l)
);
}
);
width = 600;
}
);
note = Y;
unicode = (89,121);
},
{
glyphname = Z;
lastChange = "2023-04-14 18:39:04 +0000";
layers = (
{
layerId = m01;
shapes = (
{
closed = 1;
nodes = (
(248,636,l),
(143,531,l),
(91,531,l),
(91,351,l),
(144,351,l),
(248,455,l)
);
},
{
closed = 1;
nodes = (
(379,159,l),
(326,159,l),
(274,212,l),
(273,53,l),
(326,0,l),
(358,0,l),
(408,0,l),
(511,103,l),
(511,291,l)
);
}
);
width = 600;
},
{
layerId = "0E77300E-4535-4E6D-BB60-A6761FA7179C";
shapes = (
{
closed = 1;
nodes = (
(248,532,l),
(143,427,l),
(91,427,l),
(91,247,l),
(144,247,l),
(248,455,l)
);
},
{
closed = 1;
nodes = (
(379,55,l),
(326,55,l),
(274,108,l),
(273,18.333,l),
(326,0,l),
(358,0,l),
(408,0,l),
(511,103,l),
(511,187,l)
);
}
);
width = 600;
},
{
layerId = "7456F304-0BFA-4692-82C1-4D2EC21296B2";
shapes = (
{
closed = 1;
nodes = (
(223,430,l),
(207,414,l),
(144,351,l),
(91,351,l),
(144,351,l),
(248,455,l)
);
},
{
closed = 1;
nodes = (
(408,0,l),
(326,0,l),
(304,22,l),
(273,53,l),
(326,0,l),
(358,0,l),
(408,0,l),
(417,16,l),
(511,187,l)
);
}
);
width = 600;
}
);
note = Z;
unicode = (90,122);
},
{
glyphname = zero;
layers = (
{
layerId = m01;
shapes = (
{
closed = 1;
nodes = (
(205,634,l),
(139,568,l),
(139,516,l),
(204,451,l),
(373,285,l),
(464,376,l),
(464,427,l),
(257,634,l)
);
},
{
closed = 1;
nodes = (
(34,309,l),
(342,0,l),
(398,0,l),
(566,175,l),
(568,376,l),
(398,206,l),
(343,206,l),
(34,515,l)
);
}
);
width = 600;
},
{
layerId = "0E77300E-4535-4E6D-BB60-A6761FA7179C";
shapes = (
{
closed = 1;
nodes = (
(205,501,l),
(205,435,l),
(257,435,l),
(428,255,l),
(453,232,l),
(464,243,l),
(464,294,l),
(257,501,l)
);
},
{
closed = 1;
nodes = (
(34,309,l),
(342,0,l),
(398,0,l),
(566,175,l),
(568,243,l),
(398,73,l),
(343,73,l),
(34,382,l)
);
}
);
width = 600;
},
{
layerId = "7456F304-0BFA-4692-82C1-4D2EC21296B2";
shapes = (
{
closed = 1;
nodes = (
(228,435,l),
(205,435,l),
(257,435,l),
(428,255,l),
(453,232,l),
(428,255,l),
(375,311,l),
(257,435,l)
);
},
{
closed = 1;
nodes = (
(34,309,l),
(342,0,l),
(398,0,l),
(566,175,l),
(548,156,l),
(398,0,l),
(342,0,l),
(110,232,l)
);
}
);
width = 600;
}
);
note = zero;
unicode = 48;
},
{
glyphname = one;
layers = (
{
layerId = m01;
shapes = (
{
closed = 1;
nodes = (
(152,378,l),
(529,0,l),
(583,0,l),
(583,210,l),
(527,210,l),
(152,587,l)
);
},
{
closed = 1;
nodes = (
(73,532,l),
(19,532,l),
(19,329,l),
(77,329,l),
(127,379,l),
(127,585,l)
);
}
);
width = 600;
},
{
layerId = "0E77300E-4535-4E6D-BB60-A6761FA7179C";
shapes = (
{
closed = 1;
nodes = (
(152,378,l),
(529,0,l),
(583,0,l),
(583,71,l),
(527,71,l),
(152,448,l)
);
},
{
closed = 1;
nodes = (
(73,393,l),
(19,393,l),
(19,329,l),
(77,329,l),
(127,379,l),
(127,446,l)
);
}
);
width = 600;
},
{
layerId = "7456F304-0BFA-4692-82C1-4D2EC21296B2";
shapes = (
{
closed = 1;
nodes = (
(152,378,l),
(529,0,l),
(583,0,l),
(575,0,l),
(529,0,l),
(159,371,l)
);
},
{
closed = 1;
nodes = (
(77,329,l),
(35,329,l),
(19,329,l),
(77,329,l),
(127,379,l),
(114,366,l)
);
}
);
width = 600;
}
);
note = one;
unicode = 49;
},
{
glyphname = two;
layers = (
{
layerId = m01;
shapes = (
{
closed = 1;
nodes = (
(154,574,l),
(65,486,l),
(65,427,l),
(9,485,l),
(9,310,l),
(66,253,l),
(66,326,l),
(141,401,l),
(154,414,l),
(186,414,l),
(214,414,l),
(240,388,l),
(240,416,l),
(296,472,l),
(355,472,l),
(355,492,l),
(298,492,l),
(216,574,l)
);
},
{
closed = 1;
nodes = (
(355,413,l),
(355,290,l),
(325,321,l),
(303,343,l),
(240,343,l),
(240,359,l),
(299,359,l)
);
},
{
closed = 1;
nodes = (
(472,177,l),
(344,177,l),
(240,285,l),
(240,105,l),
(345,0,l),
(472,0,l),
(589,117,l),
(589,294,l)
);
}
);
width = 600;
},
{
layerId = "0E77300E-4535-4E6D-BB60-A6761FA7179C";
shapes = (
{
closed = 1;
nodes = (
(154,474,l),
(65,386.27,l),
(65,329.929,l),
(9,387.929,l),
(9,286.151,l),
(66,253,l),
(66,326,l),
(154,414,l),
(214,414,l),
(273,349,l),
(240,316,l),
(240,288,l),
(240,316,l),
(296,372,l),
(355,372,l),
(355,392,l),
(298,392,l),
(216,474,l)
);
},
{
closed = 1;
nodes = (
(355,313,l),
(355,251,l),
(326,220,l),
(303,243,l),
(240,243,l),
(240,259,l),
(299,259,l)
);
},
{
closed = 1;
nodes = (
(472,77,l),
(344,77,l),
(240,185,l),
(240,45.678,l),
(345,0,l),
(472,0,l),
(589,117,l),
(589,194,l)
);
}
);
width = 600;
},
{
layerId = "7456F304-0BFA-4692-82C1-4D2EC21296B2";
shapes = (
{
closed = 1;
nodes = (
(214,414,l),
(154,414,l),
(66,326,l),
(66,253,l),
(9,310,l),
(66,253,l),
(66,326,l),
(154,414,l),
(214,414,l),
(273,349,l),
(240,316,l),
(240,288,l),
(240,316,l),
(296,372,l),
(355,372,l),
(355,372,l),
(296,372,l),
(273,349,l)
);
},
{
closed = 1;
nodes = (
(326,220,l),
(355,251,l),
(326,220,l),
(303,243,l),
(240,243,l),
(249,243,l),
(303,243,l)
);
},
{
closed = 1;
nodes = (
(472,0,l),
(345,0,l),
(275,70,l),
(240,105,l),
(345,0,l),
(472,0,l),
(589,117,l),
(584,112,l)
);
}
);
width = 600;
}
);
note = two;
unicode = 50;
},
{
glyphname = three;
layers = (
{
layerId = m01;
shapes = (
{
closed = 1;
nodes = (
(218,617,l),
(138,532,l),
(74,532,l),
(74,505,l),
(107,505,l),
(195,416,l),
(218,440,l)
);
},
{
closed = 1;
nodes = (
(46,279,l),
(325,0,l),
(385,0,l),
(385,171,l),
(326,171,l),
(46,451,l)
);
},
{
closed = 1;
nodes = (
(243,368,l),
(243,341,l),
(270,341,l),
(348,263,l),
(387,304,l),
(387,453,l),
(303,368,l)
);
},
{
closed = 1;
nodes = (
(472,200,l),
(412,199,l),
(412,22,l),
(478,22,l),
(557,100,l),
(557,284,l)
);
}
);
width = 600;
},
{
layerId = "0E77300E-4535-4E6D-BB60-A6761FA7179C";
shapes = (
{
closed = 1;
nodes = (
(218,500,l),
(138,415,l),
(74,415,l),
(74,388,l),
(107,388,l),
(138,357,l),
(218,441,l)
);
},
{
closed = 1;
nodes = (
(46,279,l),
(325,0,l),
(385,0,l),
(385,54,l),
(326,54,l),
(46,334,l)
);
},
{
closed = 1;
nodes = (
(243,251,l),
(243,224,l),
(270,224,l),
(303,198,l),
(387,279,l),
(387,336,l),
(303,251,l)
);
},
{
closed = 1;
nodes = (
(472,83,l),
(412,82,l),
(412,22,l),
(478,22,l),
(557,100,l),
(557,167,l)
);
}
);
width = 600;
},
{
layerId = "7456F304-0BFA-4692-82C1-4D2EC21296B2";
shapes = (
{
closed = 1;
nodes = (
(186,407,l),
(138,357,l),
(107,388,l),
(74,388,l),
(107,388,l),
(138,357,l),
(218,441,l)
);
},
{
closed = 1;
nodes = (
(46,279,l),
(325,0,l),
(385,0,l),
(374,0,l),
(325,0,l),
(104,221,l)
);
},
{
closed = 1;
nodes = (
(270,224,l),
(243,224,l),
(270,224,l),
(303,198,l),
(387,279,l),
(380,272,l),
(303,198,l)
);
},
{
closed = 1;
nodes = (
(478,22,l),
(434,22,l),
(412,22,l),
(478,22,l),
(557,100,l),
(554,97,l)
);
}
);
width = 600;
}
);
note = three;
unicode = 51;
},
{
glyphname = four;
layers = (
{
layerId = m01;
shapes = (
{
closed = 1;
nodes = (
(-18,222,l),
(67,136,l),
(128,136,l),
(128,310,l),
(62,315,l),
(-18,395,l)
);
},
{
closed = 1;
nodes = (
(160,570,l),
(160,402,l),
(173,388,l),
(240,456,l),
(299,456,l),
(299,485,l),
(246,485,l)
);
},
{
closed = 1;
nodes = (
(299,456,l),
(299,395,l)
);
},
{
closed = 1;
nodes = (
(214,309,l),
(153,310,l),
(153,136,l),
(213,136,l),
(299,223,l),
(299,395,l)
);
},
{
closed = 1;
nodes = (
(335,226,l),
(562,0,l),
(621,0,l),
(621,171,l),
(558,171,l),
(335,398,l)
);
}
);
width = 600;
},
{
layerId = "0E77300E-4535-4E6D-BB60-A6761FA7179C";
shapes = (
{
closed = 1;
nodes = (
(-18,222,l),
(67,136,l),
(128,136,l),
(128,204,l),
(67,204,l),
(-18,289,l)
);
},
{
closed = 1;
nodes = (
(160,478,l),
(160,424,l),
(180,406,l),
(246,345,l),
(299,345,l),
(299,393,l),
(246,393,l)
);
},
{
closed = 1;
nodes = (
(299,343,l),
(299,303,l)
);
},
{
closed = 1;
nodes = (
(214,203,l),
(153,204,l),
(153,136,l),
(213,136,l),
(299,223,l),
(299,289,l)
);
},
{
closed = 1;
nodes = (
(335,226,l),
(562,0,l),
(621,0,l),
(621,62,l),
(558,62,l),
(335,289,l)
);
}
);
width = 600;
},
{
layerId = "7456F304-0BFA-4692-82C1-4D2EC21296B2";
shapes = (
{
closed = 1;
nodes = (
(-18,222,l),
(67,136,l),
(128,136,l),
(117,136,l),
(67,136,l),
(4,200,l)
);
},
{
closed = 1;
nodes = (
(180,406,l),
(160,424,l),
(180,406,l),
(246,345,l),
(299,345,l),
(292,345,l),
(246,345,l)
);
},
{
closed = 1;
nodes = (
(299,343,l),
(299,303,l)
);
},
{
closed = 1;
nodes = (
(213,136,l),
(184,136,l),
(153,136,l),
(213,136,l),
(299,223,l),
(292,216,l)
);
},
{
closed = 1;
nodes = (
(335,226,l),
(562,0,l),
(621,0,l),
(612,0,l),
(562,0,l),
(370,191,l)
);
}
);
width = 600;
}
);
note = four;
unicode = 52;
},
{
glyphname = five;
layers = (
{
layerId = m01;
shapes = (
{
closed = 1;
nodes = (
(235,346,l),
(284,346,l),
(332,393,l),
(332,245,l),
(285,198,l),
(234,198,l)
);
},
{
closed = 1;
nodes = (
(78,286,l),
(165,197,l),
(220,197,l),
(220,346,l),
(170,346,l),
(78,435,l)
);
},
{
closed = 1;
nodes = (
(223,589,l),
(151,518,l),
(151,464,l),
(209,407,l),
(224,422,l),
(259,422,l),
(274,437,l),
(274,589,l)
);
},
{
closed = 1;
nodes = (
(345,392,l),
(345,231,l),
(358,217,l),
(412,271,l),
(412,324,l)
);
},
{
closed = 1;
nodes = (
(385,148,l),
(345,148,l),
(285,198,l),
(285,56,l),
(341,0,l),
(387,0,l),
(486,98,l),
(486,248,l)
);
}
);
width = 600;
},
{
layerId = "0E77300E-4535-4E6D-BB60-A6761FA7179C";
shapes = (
{
closed = 1;
nodes = (
(256,250,l),
(305,250,l),
(353,297,l),
(353,240,l),
(305,197,l),
(255,198,l)
);
},
{
closed = 1;
nodes = (
(99,286,l),
(186,197,l),
(241,197,l),
(241,250,l),
(191,250,l),
(99,339,l)
);
},
{
closed = 1;
nodes = (
(225,473,l),
(153,402,l),
(153,348,l),
(193,384,l),
(229,417,l),
(261,417,l),
(276,417,l),
(276,473,l)
);
},
{
closed = 1;
nodes = (
(366,296,l),
(366,240,l),
(409,198,l),
(433,175,l),
(433,228,l)
);
},
{
closed = 1;
nodes = (
(406,52,l),
(366,52,l),
(306,111,l),
(306,31.394,l),
(362,0,l),
(408,0,l),
(507,98,l),
(507,152,l)
);
}
);
width = 600;
},
{
layerId = "7456F304-0BFA-4692-82C1-4D2EC21296B2";
shapes = (
{
closed = 1;
nodes = (
(280,197,l),
(281,197,l),
(284,197,l),
(332,240,l),
(284,197,l),
(234,198,l)
);
},
{
closed = 1;
nodes = (
(78,286,l),
(165,197,l),
(220,197,l),
(211,197,l),
(165,197,l),
(84,280,l)
);
},
{
closed = 1;
nodes = (
(229,437,l),
(152,363,l),
(151,362,l),
(202,411,l),
(229,437,l),
(256,437,l),
(274,437,l),
(264,437,l)
);
},
{
closed = 1;
nodes = (
(352,233,l),
(345,240,l),
(388,198,l),
(412,175,l),
(388,198,l)
);
},
{
closed = 1;
nodes = (
(387,0,l),
(341,0,l),
(302,39,l),
(285,56,l),
(341,0,l),
(387,0,l),
(486,98,l),
(473,85,l)
);
}
);
width = 600;
}
);
note = five;
unicode = 53;
},
{
glyphname = six;
layers = (
{
layerId = m01;
shapes = (
{
closed = 1;
nodes = (
(236,613,l),
(154,532,l),
(154,470,l),
(220,405,l),
(239,423,l)
);
},
{
closed = 1;
nodes = (
(70,259,l),
(174,155,l),
(235,155,l),
(235,335,l),
(181,335,l),
(70,437,l)
);
},
{
closed = 1;
nodes = (
(246,81,l),
(327,0,l),
(389,0,l),
(389,171,l),
(330,171,l),
(246,255,l)
);
},
{
closed = 1;
nodes = (
(460,173,l),
(411,173,l),
(411,0,l),
(470,0,l),
(522,52,l),
(522,235,l)
);
},
{
closed = 1;
nodes = (
(249,335,l),
(249,314,l),
(305,314,l),
(345,274,l),
(358,261,l),
(358,391,l),
(302,336,l)
);
},
{
closed = 1;
nodes = (
(378,387,l),
(378,242,l),
(395,226,l),
(410,211,l),
(410,229,l),
(463,283,l),
(463,303,l)
);
}
);
width = 600;
},
{
layerId = "0E77300E-4535-4E6D-BB60-A6761FA7179C";
shapes = (
{
closed = 1;
nodes = (
(236,490,l),
(154,409,l),
(154,347,l),
(176,367,l),
(239,423,l)
);
},
{
closed = 1;
nodes = (
(70,259,l),
(174,155,l),
(235,155,l),
(235,212,l),
(181,212,l),
(70,314,l)
);
},
{
closed = 1;
nodes = (
(246,81,l),
(327,0,l),
(389,0,l),
(389,48,l),
(330,48,l),
(246,132,l)
);
},
{
closed = 1;
nodes = (
(460,50,l),
(411,50,l),
(411,0,l),
(470,0,l),
(522,52,l),
(522,112,l)
);
},
{
closed = 1;
nodes = (
(249,212,l),
(249,191,l),
(249,163,l),
(305,163,l),
(358,212,l),
(358,268,l),
(302,213,l)
);
},
{
closed = 1;
nodes = (
(378,264,l),
(378,212,l),
(406,186,l),
(450,146,l),
(452,148,l),
(463,160,l),
(463,180,l)
);
}
);
width = 600;
},
{
layerId = "7456F304-0BFA-4692-82C1-4D2EC21296B2";
shapes = (
{
closed = 1;
nodes = (
(154,347,l),
(154,409,l),
(154,400,l),
(154,347,l),
(239,423,l)
);
},
{
closed = 1;
nodes = (
(70,259,l),
(174,155,l),
(235,155,l),
(235,212,l),
(235,155,l),
(174,155,l)
);
},
{
closed = 1;
nodes = (
(246,81,l),
(327,0,l),
(389,0,l),
(389,48,l),
(389,0,l),
(327,0,l)
);
},
{
closed = 1;
nodes = (
(411,0,l),
(411,50,l),
(411,0,l),
(470,0,l),
(522,52,l),
(470,0,l)
);
},
{
closed = 1;
nodes = (
(249,212,l),
(249,191,l),
(249,163,l),
(305,163,l),
(358,212,l),
(305,163,l),
(249,163,l)
);
},
{
closed = 1;
nodes = (
(378,264,l),
(378,212,l),
(378,264,l),
(463,180,l),
(463,163,l),
(463,160,l),
(463,180,l)
);
}
);
width = 600;
}
);
note = six;
unicode = 54;
},
{
glyphname = seven;
layers = (
{
layerId = m01;
shapes = (
{
closed = 1;
nodes = (
(179,361,l),
(539,0,l),
(591,0,l),
(591,201,l),
(537,201,l),
(179,560,l)
);
},
{
closed = 1;
nodes = (
(7,227,l),
(82,152,l),
(137,152,l),
(137,309,l),
(81,309,l),
(7,386,l)
);
},
{
closed = 1;
nodes = (
(158,561,l),
(55,458,l),
(9,458,l),
(9,440,l),
(60,440,l),
(125,375,l),
(158,407,l)
);
}
);
width = 600;
},
{
layerId = "0E77300E-4535-4E6D-BB60-A6761FA7179C";
shapes = (
{
closed = 1;
nodes = (
(179,361,l),
(539,0,l),
(591,0,l),
(591,98,l),
(537,98,l),
(179,457,l)
);
},
{
closed = 1;
nodes = (
(7,227,l),
(82,152,l),
(137,152,l),
(137,206,l),
(81,206,l),
(7,283,l)
);
},
{
closed = 1;
nodes = (
(158,458,l),
(55,355,l),
(9,355,l),
(9,337,l),
(60,337,l),
(97,300,l),
(158,361,l)
);
}
);
width = 600;
},
{
layerId = "7456F304-0BFA-4692-82C1-4D2EC21296B2";
shapes = (
{
closed = 1;
nodes = (
(179,361,l),
(539,0,l),
(591,0,l),
(580,0,l),
(539,0,l),
(206,334,l)
);
},
{
closed = 1;
nodes = (
(7,227,l),
(82,152,l),
(137,152,l),
(118,152,l),
(82,152,l),
(35,199,l)
);
},
{
closed = 1;
nodes = (
(97,300,l),
(60,337,l),
(19,337,l),
(9,337,l),
(60,337,l),
(97,300,l),
(158,361,l)
);
}
);
width = 600;
}
);
note = seven;
unicode = 55;
},
{
glyphname = eight;
layers = (
{
layerId = m01;
shapes = (
{
closed = 1;
nodes = (
(238,87,l),
(324,0,l),
(391,0,l),
(391,183,l),
(327,183,l),
(238,274,l)
);
},
{
closed = 1;
nodes = (
(62,263,l),
(149,177,l),
(216,177,l),
(216,360,l),
(152,360,l),
(62,450,l)
);
},
{
closed = 1;
nodes = (
(466,185,l),
(414,185,l),
(414,0,l),
(477,0,l),
(533,56,l),
(533,252,l)
);
},
{
closed = 1;
nodes = (
(241,359,l),
(241,337,l),
(300,337,l),
(357,280,l),
(357,420,l),
(298,360,l)
);
},
{
closed = 1;
nodes = (
(182,595,l),
(122,536,l),
(65,535,l),
(65,512,l),
(125,512,l),
(182,456,l)
);
},
{
closed = 1;
nodes = (
(379,415,l),
(379,260,l),
(413,227,l),
(413,246,l),
(470,303,l),
(470,325,l)
);
},
{
closed = 1;
nodes = (
(209,590,l),
(209,434,l),
(242,401,l),
(242,420,l),
(299,477,l),
(299,499,l)
);
}
);
width = 600;
},
{
layerId = "0E77300E-4535-4E6D-BB60-A6761FA7179C";
shapes = (
{
closed = 1;
nodes = (
(238,87,l),
(324,0,l),
(391,0,l),
(391,49,l),
(327,49,l),
(238,140,l)
);
},
{
closed = 1;
nodes = (
(62,263,l),
(149,177,l),
(216,177,l),
(216,226,l),
(152,226,l),
(62,316,l)
);
},
{
closed = 1;
nodes = (
(466,51,l),
(414,51,l),
(414,0,l),
(477,0,l),
(533,56,l),
(533,118,l)
);
},
{
closed = 1;
nodes = (
(241,225,l),
(241,182,l),
(300,182,l),
(357,238,l),
(357,286,l),
(298,226,l)
);
},
{
closed = 1;
nodes = (
(182,461,l),
(122,402,l),
(65,401,l),
(65,365,l),
(125,365,l),
(182,415,l)
);
},
{
closed = 1;
nodes = (
(379,281,l),
(379,218,l),
(408,191,l),
(452,151,l),
(470,169,l),
(470,191,l)
);
},
{
closed = 1;
nodes = (
(209,456,l),
(209,415,l),
(290,334,l),
(242,286,l),
(299,343,l),
(299,365,l)
);
}
);
width = 600;
},
{
layerId = "7456F304-0BFA-4692-82C1-4D2EC21296B2";
shapes = (
{
closed = 1;
nodes = (
(238,87,l),
(324,0,l),
(391,0,l),
(391,49,l),
(391,0,l),
(324,0,l)
);
},
{
closed = 1;
nodes = (
(62,263,l),
(149,177,l),
(216,177,l),
(209,177,l),
(149,177,l),
(76,249,l)
);
},
{
closed = 1;
nodes = (
(533,56,l),
(477,0,l),
(414,0,l),
(477,0,l),
(533,56,l),
(533,118,l)
);
},
{
closed = 1;
nodes = (
(263,182,l),
(241,182,l),
(300,182,l),
(357,238,l),
(351,232,l),
(300,182,l)
);
},
{
closed = 1;
nodes = (
(169,404,l),
(125,365,l),
(97,365,l),
(65,365,l),
(125,365,l),
(182,415,l)
);
},
{
closed = 1;
nodes = (
(408,191,l),
(379,218,l),
(408,191,l),
(452,151,l),
(470,169,l),
(452,151,l)
);
},
{
closed = 1;
nodes = (
(228,396,l),
(209,415,l),
(290,334,l),
(242,286,l),
(299,343,l),
(290,334,l)
);
}
);
width = 600;
}
);
note = eight;
unicode = 56;
},
{
glyphname = nine;
layers = (
{
layerId = m01;
shapes = (
{
closed = 1;
nodes = (
(72,387,l),
(72,287,l),
(150,208,l),
(211,208,l),
(211,374,l),
(153,374,l),
(123,404,l),
(72,456,l)
);
},
{
closed = 1;
nodes = (
(232,376,l),
(232,208,l),
(289,208,l),
(339,259,l),
(339,436,l),
(279,376,l)
);
},
{
closed = 1;
nodes = (
(180,588,l),
(126,534,l),
(75,533,l),
(75,513,l),
(129,513,l),
(161,480,l),
(180,461,l)
);
},
{
closed = 1;
nodes = (
(200,584,l),
(200,443,l),
(230,413,l),
(230,430,l),
(282,482,l),
(282,502,l)
);
},
{
closed = 1;
nodes = (
(356,425,l),
(356,251,l),
(374,234,l),
(431,291,l),
(431,351,l)
);
},
{
closed = 1;
nodes = (
(404,157,l),
(351,157,l),
(293,215,l),
(293,59,l),
(352,0,l),
(408,0,l),
(512,104,l),
(511,265,l)
);
}
);
width = 600;
},
{
layerId = "0E77300E-4535-4E6D-BB60-A6761FA7179C";
shapes = (
{
closed = 1;
nodes = (
(72,295.547,l),
(72,287,l),
(150,208,l),
(211,208,l),
(211,267,l),
(153,267,l),
(123,297,l),
(72,349,l)
);
},
{
closed = 1;
nodes = (
(222,379.684,l),
(222,208,l),
(279,208,l),
(339,264,l),
(339,441,l),
(279,269,l)
);
},
{
closed = 1;
nodes = (
(163,481,l),
(115.919,427,l),
(75,426,l),
(75,406,l),
(129,406,l),
(144,389,l),
(180,420,l)
);
},
{
closed = 1;
nodes = (
(200,477,l),
(200,420,l),
(264,357,l),
(230,323,l),
(282,375,l),
(282,395,l)
);
},
{
closed = 1;
nodes = (
(356,318,l),
(356,262,l),
(431,189,l),
(431,184,l),
(431,244,l)
);
},
{
closed = 1;
nodes = (
(404,50,l),
(351,50,l),
(293,108,l),
(293,18.79,l),
(352,0,l),
(408,0,l),
(512,104,l),
(511,158,l)
);
}
);
width = 600;
},
{
layerId = "7456F304-0BFA-4692-82C1-4D2EC21296B2";
shapes = (
{
closed = 1;
nodes = (
(72,280,l),
(72,287,l),
(150,208,l),
(211,208,l),
(211,267,l),
(211,208,l),
(150,208,l),
(72,287,l)
);
},
{
closed = 1;
nodes = (
(279,208,l),
(232,208,l),
(279,208,l),
(339,264,l),
(339,329,l),
(339,264,l)
);
},
{
closed = 1;
nodes = (
(174,415,l),
(144,389,l),
(129,406,l),
(75,406,l),
(129,406,l),
(144,389,l),
(180,420,l)
);
},
{
closed = 1;
nodes = (
(264,357,l),
(200,420,l),
(264,357,l),
(230,323,l),
(282,375,l),
(279,372,l)
);
},
{
closed = 1;
nodes = (
(431,189,l),
(356,262,l),
(431,189,l),
(431,184,l),
(431,244,l)
);
},
{
closed = 1;
nodes = (
(352,0,l),
(293,59,l),
(293,108,l),
(293,59,l),
(352,0,l),
(408,0,l),
(512,104,l),
(408,0,l)
);
}
);
width = 600;
}
);
note = nine;
unicode = 57;
},
{
glyphname = hyphen;
layers = (
{
layerId = m01;
shapes = (
{
closed = 1;
nodes = (
(195,350,l),
(195,183,l),
(230,147,l),
(348,147,l),
(387,186,l),
(387,348,l),
(348,309,l),
(234,309,l)
);
}
